<svg width="21" height="21" viewBox="0 0 21 21" fill="none" xmlns="http://www.w3.org/2000/svg">
<path d="M8.07815 18.0049C7.55415 17.9765 7.06105 17.748 6.70065 17.3666C6.26948 16.9518 5.88472 16.4913 5.55315 15.9933C5.03522 15.2516 4.62581 14.4398 4.33732 13.5824C4.01082 12.66 3.83906 11.69 3.82899 10.7116C3.80362 9.75157 4.04137 8.80288 4.51649 7.96827C4.86446 7.36668 5.36081 6.86432 5.95815 6.5091C6.54889 6.15541 7.223 5.96502 7.91149 5.95744C8.4305 5.98814 8.94053 6.10677 9.41982 6.30827C9.80232 6.4766 10.204 6.59494 10.6165 6.65994C11.0715 6.56462 11.5161 6.42507 11.944 6.24327C12.4504 6.04555 12.9865 5.93482 13.5298 5.91577C13.6023 5.91577 13.674 5.91577 13.7432 5.9241C14.9348 5.95827 16.0432 6.54327 16.7432 7.50744C16.1968 7.79963 15.7423 8.2376 15.4299 8.77265C15.1176 9.30771 14.9598 9.91889 14.974 10.5383C14.9685 11.0119 15.0635 11.4813 15.2527 11.9155C15.4419 12.3497 15.7209 12.7389 16.0715 13.0574C16.3906 13.3614 16.7622 13.6051 17.1682 13.7766C17.0848 14.0266 16.989 14.2683 16.8873 14.5116C16.6565 15.0493 16.3717 15.5622 16.0373 16.0424C15.7211 16.5235 15.3531 16.9684 14.9398 17.3691C14.5628 17.7432 14.0603 17.9638 13.5298 17.9883C13.0801 17.9683 12.6383 17.8628 12.2282 17.6774C11.7858 17.4847 11.3105 17.3792 10.8282 17.3666C10.3322 17.3764 9.84281 17.4813 9.38648 17.6758C8.99236 17.8536 8.57128 17.9643 8.14065 18.0033L8.07815 18.0049V18.0049ZM10.7032 5.91577C10.6407 5.91577 10.5782 5.91577 10.5157 5.90827C10.5025 5.80908 10.4955 5.70916 10.4948 5.6091C10.5221 4.77672 10.8474 3.9818 11.4115 3.3691C11.727 3.01698 12.1094 2.73116 12.5365 2.52827C12.9345 2.3234 13.3694 2.20015 13.8157 2.16577C13.8282 2.27494 13.8282 2.3816 13.8282 2.48327C13.8164 3.30258 13.5086 4.08996 12.9615 4.69994C12.6966 5.05512 12.3572 5.34802 11.967 5.55806C11.5769 5.7681 11.1455 5.89019 10.7032 5.91577V5.91577Z" fill="#1A1A1A"/>
</svg>
