<svg width="24" height="24" viewBox="0 0 24 24" fill="none" xmlns="http://www.w3.org/2000/svg">
<path d="M4.79413 7.05526C4.79413 5.80626 5.80713 4.79326 7.05513 4.79326H8.08413C8.68013 4.79326 9.25313 4.55726 9.67713 4.13626L10.3961 3.41626C11.2771 2.53126 12.7091 2.52726 13.5941 3.40826L13.6031 3.41626L14.3231 4.13626C14.7461 4.55726 15.3191 4.79326 15.9161 4.79326H16.9441C18.1931 4.79326 19.2061 5.80626 19.2061 7.05526V8.08226C19.2061 8.68026 19.4421 9.25226 19.8631 9.67626L20.5831 10.3963C21.4681 11.2773 21.4731 12.7083 20.5921 13.5943L20.5831 13.6033L19.8631 14.3233C19.4421 14.7453 19.2061 15.3193 19.2061 15.9153V16.9443C19.2061 18.1933 18.1931 19.2053 16.9441 19.2053H15.9161C15.3191 19.2053 14.7461 19.4423 14.3231 19.8633L13.6031 20.5823C12.7231 21.4683 11.2911 21.4723 10.4051 20.5913C10.4021 20.5883 10.3991 20.5853 10.3961 20.5823L9.67713 19.8633C9.25313 19.4423 8.68013 19.2053 8.08413 19.2053H7.05513C5.80713 19.2053 4.79413 18.1933 4.79413 16.9443V15.9153C4.79413 15.3193 4.55713 14.7453 4.13613 14.3233L3.41713 13.6033C2.53113 12.7223 2.52713 11.2903 3.40813 10.4053L3.41713 10.3963L4.13613 9.67626C4.55713 9.25226 4.79413 8.68026 4.79413 8.08226V7.05526" stroke="#5BA4BB" stroke-width="1.5" stroke-linecap="round" stroke-linejoin="round"/>
<path d="M9.42969 14.5697L14.5697 9.42969" stroke="#5BA4BB" stroke-width="1.5" stroke-linecap="round" stroke-linejoin="round"/>
<path d="M14.5664 15.322C14.3664 15.322 14.1764 15.242 14.0364 15.102C13.9664 15.032 13.9164 14.942 13.8764 14.852C13.8364 14.762 13.8164 14.673 13.8164 14.572C13.8164 14.472 13.8364 14.372 13.8764 14.282C13.9164 14.192 13.9664 14.112 14.0364 14.042C14.3164 13.762 14.8164 13.762 15.0964 14.042C15.1664 14.112 15.2264 14.192 15.2664 14.282C15.2964 14.372 15.3164 14.472 15.3164 14.572C15.3164 14.673 15.2964 14.762 15.2664 14.852C15.2264 14.942 15.1664 15.032 15.0964 15.102C14.9564 15.242 14.7664 15.322 14.5664 15.322Z" fill="#5BA4BB"/>
<path d="M9.42578 10.1822C9.32578 10.1822 9.23578 10.1612 9.14578 10.1212C9.05578 10.0812 8.96578 10.0322 8.89578 9.96216C8.82578 9.88216 8.77578 9.80216 8.73578 9.71216C8.69578 9.62116 8.67578 9.53216 8.67578 9.43216C8.67578 9.33116 8.69578 9.23216 8.73578 9.14216C8.77578 9.05216 8.82578 8.96216 8.89578 8.90216C9.18578 8.62116 9.67578 8.62116 9.95578 8.90216C10.0958 9.04116 10.1758 9.23216 10.1758 9.43216C10.1758 9.53216 10.1658 9.62116 10.1258 9.71216C10.0858 9.80216 10.0258 9.88216 9.95578 9.96216C9.88578 10.0322 9.80578 10.0812 9.71578 10.1212C9.62578 10.1612 9.52578 10.1822 9.42578 10.1822Z" fill="#5BA4BB"/>
</svg>
