<svg width="322" height="206" viewBox="0 0 322 206" fill="none" xmlns="http://www.w3.org/2000/svg">
<path d="M143.227 77.8404V29.7495L264.499 42.295V77.8404H143.227Z" fill="#438BA2"/>
<path d="M44.9551 188.658V53.7949L157.864 70.5222V205.386L44.9551 188.658Z" fill="#B0D3DE"/>
<path d="M262.409 174.022L264.5 43.3403L157.864 70.5221V205.386L262.409 174.022Z" fill="#81B9CB"/>
<path d="M143.228 29.7495L44.9551 53.7949L143.228 68.4313V29.7495Z" fill="#5BA4BB"/>
<path d="M195.5 125.931L157.863 70.5222L264.5 42.2949L295.863 93.5221L195.5 125.931Z" fill="#D4E7ED"/>
<path d="M15.6816 103.977L44.9543 53.7949L157.863 70.5222L134.863 128.022L15.6816 103.977Z" fill="#D4E7ED"/>
<circle cx="12" cy="169.295" r="12" fill="#E6E6E6"/>
<circle cx="298.637" cy="138.113" r="8" fill="#D4E7ED"/>
<circle cx="213.637" cy="3.11279" r="3" fill="#B0D3DE"/>
</svg>
