<svg width="290" height="226" viewBox="0 0 290 226" fill="none" xmlns="http://www.w3.org/2000/svg">
<path d="M0.272461 44.5602C0.272461 41.4229 2.81574 38.8796 5.95304 38.8796H122.76V185.865H5.95304C2.81574 185.865 0.272461 183.321 0.272461 180.184V44.5602Z" fill="#F7A1A1"/>
<rect x="0.272461" y="63.3772" width="122.487" height="24.4975" fill="#F37272"/>
<rect x="12.5205" y="163.817" width="39.196" height="9.79899" rx="4.8995" fill="#F37272"/>
<rect x="12.5205" y="114.822" width="53.8945" height="19.598" rx="4.8995" fill="#F37272"/>
<rect x="59.0674" y="163.817" width="39.196" height="9.79899" rx="4.8995" fill="#F37272"/>
<path d="M144.911 48.6782L260.911 62.388C264.026 62.7563 266.253 65.5805 265.885 68.6961L249.967 203.382C249.599 206.498 246.774 208.725 243.659 208.357L127.659 194.647L144.911 48.6782Z" fill="#F7A1A1"/>
<rect x="142.036" y="73.0063" width="122.487" height="24.4975" transform="rotate(6.74043 142.036 73.0063)" fill="#F37272"/>
<rect x="200.804" y="181.09" width="39.196" height="9.79899" rx="4.8995" transform="rotate(6.74043 200.804 181.09)" fill="#F37272"/>
<circle cx="217.645" cy="132.512" r="13.4736" transform="rotate(6.74043 217.645 132.512)" fill="#F37272"/>
<circle cx="232.243" cy="134.238" r="13.4736" transform="rotate(6.74043 232.243 134.238)" fill="#EF4343"/>
<path fill-rule="evenodd" clip-rule="evenodd" d="M259.875 39.7236C272.391 39.7236 282.535 49.8705 282.535 62.3838C282.535 74.8971 272.391 85.044 259.875 85.044C247.362 85.044 237.215 74.8971 237.215 62.3838C237.215 49.8705 247.362 39.7236 259.875 39.7236Z" fill="#EF4343"/>
<path d="M259.861 53.0847V63.9102" stroke="#FDECEC" stroke-width="3.67462" stroke-linecap="round" stroke-linejoin="round"/>
<path d="M259.863 71.6829H259.888" stroke="#FDECEC" stroke-width="3.67462" stroke-linecap="round" stroke-linejoin="round"/>
<circle cx="187.484" cy="29.045" r="7.34925" fill="#FDECEC"/>
<circle cx="45.917" cy="4.07422" r="4" fill="#F37272"/>
<circle cx="88.463" cy="220.161" r="4.8995" fill="#F7A1A1"/>
</svg>
