<svg width="24" height="24" viewBox="0 0 24 24" fill="none" xmlns="http://www.w3.org/2000/svg">
<g id="Hide">
<g id="Hide_2">
<path id="Stroke 1" d="M10.0109 14.1172C9.43594 13.5432 9.08594 12.7632 9.08594 11.8882C9.08594 10.1352 10.4979 8.72217 12.2499 8.72217C13.1169 8.72217 13.9149 9.07317 14.4799 9.64717" stroke="#1A1A1A" stroke-width="1.5" stroke-linecap="round" stroke-linejoin="round"/>
<path id="Stroke 3" d="M15.3554 12.4492C15.1234 13.7392 14.1074 14.7572 12.8184 14.9912" stroke="#1A1A1A" stroke-width="1.5" stroke-linecap="round" stroke-linejoin="round"/>
<path id="Stroke 5" d="M6.905 17.2227C5.318 15.9767 3.974 14.1567 3 11.8877C3.984 9.60872 5.337 7.77872 6.934 6.52272C8.521 5.26672 10.352 4.58472 12.25 4.58472C14.159 4.58472 15.989 5.27672 17.586 6.54172" stroke="#1A1A1A" stroke-width="1.5" stroke-linecap="round" stroke-linejoin="round"/>
<path id="Stroke 7" d="M19.6978 8.74121C20.3858 9.65521 20.9908 10.7102 21.4998 11.8872C19.5328 16.4442 16.0568 19.1892 12.2498 19.1892C11.3868 19.1892 10.5358 19.0492 9.71777 18.7762" stroke="#1A1A1A" stroke-width="1.5" stroke-linecap="round" stroke-linejoin="round"/>
<path id="Stroke 9" d="M20.1373 4L4.36328 19.774" stroke="#1A1A1A" stroke-width="1.5" stroke-linecap="round" stroke-linejoin="round"/>
</g>
</g>
</svg>
