<svg width="191" height="32" viewBox="0 0 191 32" fill="none" xmlns="http://www.w3.org/2000/svg">
<rect width="32" height="32" rx="16" fill="#1A1A1A"/>
<path d="M11.1876 23V9.90909H16.4291C17.3921 9.90909 18.1954 10.0518 18.8389 10.3374C19.4823 10.6229 19.966 11.0192 20.2899 11.5263C20.6137 12.0291 20.7757 12.6087 20.7757 13.2649C20.7757 13.7763 20.6734 14.2259 20.4688 14.6136C20.2643 14.9972 19.983 15.3125 19.6251 15.5597C19.2714 15.8026 18.8666 15.9751 18.4106 16.0774V16.2053C18.9092 16.2266 19.3758 16.3672 19.8105 16.6271C20.2494 16.8871 20.6052 17.2514 20.8779 17.7202C21.1507 18.1847 21.287 18.7386 21.287 19.3821C21.287 20.0767 21.1144 20.6967 20.7693 21.2422C20.4284 21.7834 19.9234 22.2116 19.2543 22.527C18.5853 22.8423 17.7607 23 16.7806 23H11.1876ZM13.9553 20.7372H16.2117C16.983 20.7372 17.5455 20.5902 17.8992 20.2962C18.2529 19.9979 18.4298 19.6016 18.4298 19.1072C18.4298 18.745 18.3424 18.4254 18.1677 18.1484C17.993 17.8714 17.7437 17.6541 17.4198 17.4964C17.1002 17.3388 16.7188 17.2599 16.2757 17.2599H13.9553V20.7372ZM13.9553 15.3871H16.0072C16.3865 15.3871 16.7231 15.321 17.0171 15.1889C17.3154 15.0526 17.5498 14.8608 17.7203 14.6136C17.895 14.3665 17.9823 14.0703 17.9823 13.7251C17.9823 13.2521 17.814 12.8707 17.4774 12.581C17.145 12.2912 16.672 12.1463 16.0583 12.1463H13.9553V15.3871Z" fill="#F8FBFC"/>
<path d="M40 24.7264V7.27184H47.5682C48.8977 7.27184 50.0142 7.45082 50.9176 7.80877C51.8267 8.16673 52.5114 8.67241 52.9716 9.32582C53.4375 9.97923 53.6705 10.7491 53.6705 11.6355C53.6705 12.2775 53.5284 12.8627 53.2443 13.3912C52.9659 13.9196 52.5739 14.3627 52.0682 14.7207C51.5625 15.073 50.9716 15.3173 50.2955 15.4537V15.6241C51.0455 15.6525 51.7273 15.8429 52.3409 16.1951C52.9545 16.5417 53.4432 17.0218 53.8068 17.6355C54.1705 18.2434 54.3523 18.9593 54.3523 19.7832C54.3523 20.7377 54.1023 21.5872 53.6023 22.3315C53.108 23.0758 52.4034 23.661 51.4886 24.0872C50.5739 24.5133 49.483 24.7264 48.2159 24.7264H40ZM44.7386 20.9423H46.9545C47.75 20.9423 48.3466 20.7946 48.7443 20.4991C49.142 20.198 49.3409 19.7548 49.3409 19.1696C49.3409 18.7605 49.2472 18.4139 49.0597 18.1298C48.8722 17.8457 48.6051 17.6298 48.2585 17.4821C47.9176 17.3343 47.5057 17.2605 47.0227 17.2605H44.7386V20.9423ZM44.7386 14.3287H46.6818C47.0966 14.3287 47.4631 14.2633 47.7812 14.1326C48.0994 14.002 48.3466 13.8145 48.5227 13.5701C48.7045 13.3201 48.7955 13.0162 48.7955 12.6582C48.7955 12.1184 48.6023 11.7065 48.2159 11.4224C47.8295 11.1326 47.3409 10.9877 46.75 10.9877H44.7386V14.3287Z" fill="#1A1A1A"/>
<path d="M72.9403 15.9991C72.9403 17.9423 72.5625 19.5815 71.8068 20.9167C71.0511 22.2463 70.0312 23.2548 68.7472 23.9423C67.4631 24.6241 66.0312 24.965 64.4517 24.965C62.8608 24.965 61.4233 24.6213 60.1392 23.9338C58.8608 23.2406 57.8438 22.2292 57.0881 20.8997C56.3381 19.5645 55.9631 17.9309 55.9631 15.9991C55.9631 14.0559 56.3381 12.4196 57.0881 11.09C57.8438 9.75479 58.8608 8.74627 60.1392 8.06445C61.4233 7.37695 62.8608 7.0332 64.4517 7.0332C66.0312 7.0332 67.4631 7.37695 68.7472 8.06445C70.0312 8.74627 71.0511 9.75479 71.8068 11.09C72.5625 12.4196 72.9403 14.0559 72.9403 15.9991ZM68.0653 15.9991C68.0653 14.9537 67.9261 14.073 67.6477 13.3571C67.375 12.6355 66.9688 12.09 66.429 11.7207C65.8949 11.3457 65.2358 11.1582 64.4517 11.1582C63.6676 11.1582 63.0057 11.3457 62.4659 11.7207C61.9318 12.09 61.5256 12.6355 61.2472 13.3571C60.9744 14.073 60.8381 14.9537 60.8381 15.9991C60.8381 17.0446 60.9744 17.9281 61.2472 18.6497C61.5256 19.3656 61.9318 19.911 62.4659 20.286C63.0057 20.6554 63.6676 20.84 64.4517 20.84C65.2358 20.84 65.8949 20.6554 66.429 20.286C66.9688 19.911 67.375 19.3656 67.6477 18.6497C67.9261 17.9281 68.0653 17.0446 68.0653 15.9991Z" fill="#1A1A1A"/>
<path d="M92.0419 15.9991C92.0419 17.9423 91.6641 19.5815 90.9084 20.9167C90.1527 22.2463 89.1328 23.2548 87.8487 23.9423C86.5646 24.6241 85.1328 24.965 83.5533 24.965C81.9624 24.965 80.5249 24.6213 79.2408 23.9338C77.9624 23.2406 76.9453 22.2292 76.1896 20.8997C75.4396 19.5645 75.0646 17.9309 75.0646 15.9991C75.0646 14.0559 75.4396 12.4196 76.1896 11.09C76.9453 9.75479 77.9624 8.74627 79.2408 8.06445C80.5249 7.37695 81.9624 7.0332 83.5533 7.0332C85.1328 7.0332 86.5646 7.37695 87.8487 8.06445C89.1328 8.74627 90.1527 9.75479 90.9084 11.09C91.6641 12.4196 92.0419 14.0559 92.0419 15.9991ZM87.1669 15.9991C87.1669 14.9537 87.0277 14.073 86.7493 13.3571C86.4766 12.6355 86.0703 12.09 85.5305 11.7207C84.9964 11.3457 84.3374 11.1582 83.5533 11.1582C82.7692 11.1582 82.1072 11.3457 81.5675 11.7207C81.0334 12.09 80.6271 12.6355 80.3487 13.3571C80.076 14.073 79.9396 14.9537 79.9396 15.9991C79.9396 17.0446 80.076 17.9281 80.3487 18.6497C80.6271 19.3656 81.0334 19.911 81.5675 20.286C82.1072 20.6554 82.7692 20.84 83.5533 20.84C84.3374 20.84 84.9964 20.6554 85.5305 20.286C86.0703 19.911 86.4766 19.3656 86.7493 18.6497C87.0277 17.9281 87.1669 17.0446 87.1669 15.9991Z" fill="#1A1A1A"/>
<path d="M94.2344 24.7264V7.27184H98.973V14.3287H99.2116L104.462 7.27184H109.984L104.087 15.0446L110.121 24.7264H104.462L100.541 18.1809L98.973 20.2264V24.7264H94.2344Z" fill="#1A1A1A"/>
<path d="M120.565 12.7264C120.52 12.1582 120.307 11.715 119.926 11.3968C119.551 11.0787 118.98 10.9196 118.213 10.9196C117.724 10.9196 117.324 10.9792 117.011 11.0985C116.705 11.2122 116.477 11.3684 116.33 11.5673C116.182 11.7662 116.105 11.9934 116.099 12.2491C116.088 12.4593 116.125 12.6497 116.21 12.8201C116.301 12.9849 116.443 13.1355 116.636 13.2718C116.83 13.4025 117.077 13.5218 117.378 13.6298C117.679 13.7377 118.037 13.8343 118.452 13.9196L119.884 14.2264C120.849 14.4309 121.676 14.7008 122.364 15.036C123.051 15.3713 123.614 15.7662 124.051 16.2207C124.489 16.6696 124.81 17.1752 125.014 17.7377C125.224 18.3002 125.332 18.9139 125.338 19.5787C125.332 20.7264 125.045 21.698 124.477 22.4934C123.909 23.2889 123.097 23.894 122.04 24.3088C120.989 24.7235 119.724 24.9309 118.247 24.9309C116.73 24.9309 115.406 24.7065 114.276 24.2576C113.151 23.8088 112.276 23.1184 111.651 22.1866C111.031 21.2491 110.719 20.0502 110.713 18.59H115.213C115.241 19.1241 115.375 19.573 115.614 19.9366C115.852 20.3002 116.188 20.5758 116.619 20.7633C117.057 20.9508 117.577 21.0446 118.179 21.0446C118.685 21.0446 119.108 20.9821 119.449 20.8571C119.79 20.7321 120.048 20.5588 120.224 20.3372C120.401 20.1156 120.491 19.8627 120.497 19.5787C120.491 19.3116 120.403 19.0787 120.233 18.8798C120.068 18.6752 119.795 18.4934 119.415 18.3343C119.034 18.1696 118.52 18.0162 117.872 17.8741L116.134 17.4991C114.588 17.1639 113.369 16.6042 112.477 15.8201C111.591 15.0304 111.151 13.9537 111.156 12.59C111.151 11.4821 111.446 10.5133 112.043 9.68377C112.645 8.84854 113.477 8.19798 114.54 7.73207C115.608 7.26616 116.832 7.0332 118.213 7.0332C119.622 7.0332 120.841 7.269 121.869 7.74059C122.898 8.21218 123.69 8.87695 124.247 9.73491C124.81 10.5872 125.094 11.5843 125.099 12.7264H120.565Z" fill="#1A1A1A"/>
<path d="M126.663 11.09V7.27184H141.834V11.09H136.584V24.7264H131.913V11.09H126.663Z" fill="#1A1A1A"/>
<path d="M159.706 15.9991C159.706 17.9423 159.328 19.5815 158.572 20.9167C157.817 22.2463 156.797 23.2548 155.513 23.9423C154.229 24.6241 152.797 24.965 151.217 24.965C149.626 24.965 148.189 24.6213 146.905 23.9338C145.626 23.2406 144.609 22.2292 143.854 20.8997C143.104 19.5645 142.729 17.9309 142.729 15.9991C142.729 14.0559 143.104 12.4196 143.854 11.09C144.609 9.75479 145.626 8.74627 146.905 8.06445C148.189 7.37695 149.626 7.0332 151.217 7.0332C152.797 7.0332 154.229 7.37695 155.513 8.06445C156.797 8.74627 157.817 9.75479 158.572 11.09C159.328 12.4196 159.706 14.0559 159.706 15.9991ZM154.831 15.9991C154.831 14.9537 154.692 14.073 154.413 13.3571C154.141 12.6355 153.734 12.09 153.195 11.7207C152.661 11.3457 152.001 11.1582 151.217 11.1582C150.433 11.1582 149.771 11.3457 149.232 11.7207C148.697 12.09 148.291 12.6355 148.013 13.3571C147.74 14.073 147.604 14.9537 147.604 15.9991C147.604 17.0446 147.74 17.9281 148.013 18.6497C148.291 19.3656 148.697 19.911 149.232 20.286C149.771 20.6554 150.433 20.84 151.217 20.84C152.001 20.84 152.661 20.6554 153.195 20.286C153.734 19.911 154.141 19.3656 154.413 18.6497C154.692 17.9281 154.831 17.0446 154.831 15.9991Z" fill="#1A1A1A"/>
<path d="M161.898 24.7264V7.27184H169.433C170.728 7.27184 171.862 7.50764 172.833 7.97923C173.805 8.45082 174.56 9.12979 175.1 10.0162C175.64 10.9025 175.91 11.965 175.91 13.2037C175.91 14.4537 175.631 15.5076 175.075 16.3656C174.523 17.2235 173.748 17.8713 172.748 18.3088C171.754 18.7463 170.592 18.965 169.262 18.965H164.762V15.2832H168.308C168.864 15.2832 169.339 15.215 169.731 15.0787C170.129 14.9366 170.433 14.7122 170.643 14.4054C170.859 14.0985 170.967 13.698 170.967 13.2037C170.967 12.7037 170.859 12.2974 170.643 11.9849C170.433 11.6667 170.129 11.4338 169.731 11.286C169.339 11.1326 168.864 11.0559 168.308 11.0559H166.637V24.7264H161.898ZM172.126 16.715L176.489 24.7264H171.342L167.08 16.715H172.126Z" fill="#1A1A1A"/>
<path d="M177.93 24.7264V7.27184H190.509V11.09H182.668V14.09H189.862V17.9082H182.668V20.9082H190.475V24.7264H177.93Z" fill="#1A1A1A"/>
</svg>
