<svg width="193" height="32" viewBox="0 0 193 32" fill="none" xmlns="http://www.w3.org/2000/svg">
<path d="M24.3912 19.0935C24.0459 19.4282 23.8872 19.9122 23.9659 20.3868L25.1512 26.9468C25.2512 27.5028 25.0165 28.0655 24.5512 28.3868C24.0952 28.7202 23.4885 28.7602 22.9912 28.4935L17.0858 25.4135C16.8805 25.3042 16.6525 25.2455 16.4192 25.2388H16.0578C15.9325 25.2575 15.8099 25.2975 15.6979 25.3588L9.79118 28.4535C9.49918 28.6002 9.16852 28.6522 8.84452 28.6002C8.05518 28.4508 7.52852 27.6988 7.65785 26.9055L8.84452 20.3455C8.92318 19.8668 8.76452 19.3802 8.41918 19.0402L3.60452 14.3735C3.20185 13.9828 3.06185 13.3962 3.24585 12.8668C3.42452 12.3388 3.88052 11.9535 4.43118 11.8668L11.0578 10.9055C11.5619 10.8535 12.0045 10.5468 12.2312 10.0935L15.1512 4.10683C15.2205 3.9735 15.3099 3.85083 15.4179 3.74683L15.5378 3.6535C15.6005 3.58416 15.6725 3.52683 15.7525 3.48016L15.8979 3.42683L16.1245 3.3335H16.6859C17.1872 3.3855 17.6285 3.6855 17.8592 4.1335L20.8179 10.0935C21.0312 10.5295 21.4459 10.8322 21.9245 10.9055L28.5512 11.8668C29.1112 11.9468 29.5792 12.3335 29.7645 12.8668C29.9392 13.4015 29.7885 13.9882 29.3779 14.3735L24.3912 19.0935Z" fill="#1A1A1A"/>
<path d="M64.3912 19.0935C64.0459 19.4282 63.8872 19.9122 63.9659 20.3868L65.1512 26.9468C65.2512 27.5028 65.0165 28.0655 64.5512 28.3868C64.0952 28.7202 63.4885 28.7602 62.9912 28.4935L57.0858 25.4135C56.8805 25.3042 56.6525 25.2455 56.4192 25.2388H56.0578C55.9325 25.2575 55.8099 25.2975 55.6979 25.3588L49.7912 28.4535C49.4992 28.6002 49.1685 28.6522 48.8445 28.6002C48.0552 28.4508 47.5285 27.6988 47.6579 26.9055L48.8445 20.3455C48.9232 19.8668 48.7645 19.3802 48.4192 19.0402L43.6045 14.3735C43.2019 13.9828 43.0619 13.3962 43.2459 12.8668C43.4245 12.3388 43.8805 11.9535 44.4312 11.8668L51.0578 10.9055C51.5619 10.8535 52.0045 10.5468 52.2312 10.0935L55.1512 4.10683C55.2205 3.9735 55.3099 3.85083 55.4179 3.74683L55.5378 3.6535C55.6005 3.58416 55.6725 3.52683 55.7525 3.48016L55.8979 3.42683L56.1245 3.3335H56.6859C57.1872 3.3855 57.6285 3.6855 57.8592 4.1335L60.8179 10.0935C61.0312 10.5295 61.4459 10.8322 61.9245 10.9055L68.5512 11.8668C69.1112 11.9468 69.5792 12.3335 69.7645 12.8668C69.9392 13.4015 69.7885 13.9882 69.3779 14.3735L64.3912 19.0935Z" fill="#1A1A1A"/>
<path d="M104.391 19.0935C104.046 19.4282 103.887 19.9122 103.966 20.3868L105.151 26.9468C105.251 27.5028 105.017 28.0655 104.551 28.3868C104.095 28.7202 103.489 28.7602 102.991 28.4935L97.0858 25.4135C96.8805 25.3042 96.6525 25.2455 96.4192 25.2388H96.0578C95.9325 25.2575 95.8099 25.2975 95.6979 25.3588L89.7912 28.4535C89.4992 28.6002 89.1685 28.6522 88.8445 28.6002C88.0552 28.4508 87.5285 27.6988 87.6579 26.9055L88.8445 20.3455C88.9232 19.8668 88.7645 19.3802 88.4192 19.0402L83.6045 14.3735C83.2019 13.9828 83.0619 13.3962 83.2459 12.8668C83.4245 12.3388 83.8805 11.9535 84.4312 11.8668L91.0578 10.9055C91.5619 10.8535 92.0045 10.5468 92.2312 10.0935L95.1512 4.10683C95.2205 3.9735 95.3099 3.85083 95.4179 3.74683L95.5378 3.6535C95.6005 3.58416 95.6725 3.52683 95.7525 3.48016L95.8979 3.42683L96.1245 3.3335H96.6859C97.1872 3.3855 97.6285 3.6855 97.8592 4.1335L100.818 10.0935C101.031 10.5295 101.446 10.8322 101.925 10.9055L108.551 11.8668C109.111 11.9468 109.579 12.3335 109.765 12.8668C109.939 13.4015 109.789 13.9882 109.378 14.3735L104.391 19.0935Z" fill="#1A1A1A"/>
<path d="M144.391 19.0935C144.046 19.4282 143.887 19.9122 143.966 20.3868L145.151 26.9468C145.251 27.5028 145.017 28.0655 144.551 28.3868C144.095 28.7202 143.489 28.7602 142.991 28.4935L137.086 25.4135C136.881 25.3042 136.653 25.2455 136.419 25.2388H136.058C135.933 25.2575 135.81 25.2975 135.698 25.3588L129.791 28.4535C129.499 28.6002 129.169 28.6522 128.845 28.6002C128.055 28.4508 127.529 27.6988 127.658 26.9055L128.845 20.3455C128.923 19.8668 128.765 19.3802 128.419 19.0402L123.605 14.3735C123.202 13.9828 123.062 13.3962 123.246 12.8668C123.425 12.3388 123.881 11.9535 124.431 11.8668L131.058 10.9055C131.562 10.8535 132.005 10.5468 132.231 10.0935L135.151 4.10683C135.221 3.9735 135.31 3.85083 135.418 3.74683L135.538 3.6535C135.601 3.58416 135.673 3.52683 135.753 3.48016L135.898 3.42683L136.125 3.3335H136.686C137.187 3.3855 137.629 3.6855 137.859 4.1335L140.818 10.0935C141.031 10.5295 141.446 10.8322 141.925 10.9055L148.551 11.8668C149.111 11.9468 149.579 12.3335 149.765 12.8668C149.939 13.4015 149.789 13.9882 149.378 14.3735L144.391 19.0935Z" fill="#1A1A1A"/>
<path d="M184.391 19.0935C184.046 19.4282 183.887 19.9122 183.966 20.3868L185.151 26.9468C185.251 27.5028 185.017 28.0655 184.551 28.3868C184.095 28.7202 183.489 28.7602 182.991 28.4935L177.086 25.4135C176.881 25.3042 176.653 25.2455 176.419 25.2388H176.058C175.933 25.2575 175.81 25.2975 175.698 25.3588L169.791 28.4535C169.499 28.6002 169.169 28.6522 168.845 28.6002C168.055 28.4508 167.529 27.6988 167.658 26.9055L168.845 20.3455C168.923 19.8668 168.765 19.3802 168.419 19.0402L163.605 14.3735C163.202 13.9828 163.062 13.3962 163.246 12.8668C163.425 12.3388 163.881 11.9535 164.431 11.8668L171.058 10.9055C171.562 10.8535 172.005 10.5468 172.231 10.0935L175.151 4.10683C175.221 3.9735 175.31 3.85083 175.418 3.74683L175.538 3.6535C175.601 3.58416 175.673 3.52683 175.753 3.48016L175.898 3.42683L176.125 3.3335H176.686C177.187 3.3855 177.629 3.6855 177.859 4.1335L180.818 10.0935C181.031 10.5295 181.446 10.8322 181.925 10.9055L188.551 11.8668C189.111 11.9468 189.579 12.3335 189.765 12.8668C189.939 13.4015 189.789 13.9882 189.378 14.3735L184.391 19.0935Z" fill="#1A1A1A"/>
</svg>
