<svg width="314" height="234" viewBox="0 0 314 234" fill="none" xmlns="http://www.w3.org/2000/svg">
<path d="M144.319 172.85V88.2884C172.771 88.2884 194.326 77.9424 201.223 67.5962C208.844 56.1653 210.864 39.2678 211.389 26.2054C211.619 20.496 216.414 15.4959 221.697 17.6717C241.057 25.6437 235.694 58.0506 229.675 75.3557H278.819C281.406 75.3559 294.339 75.8731 294.339 88.2884C294.339 100.704 283.992 103.808 278.819 103.808C286.579 103.808 299.512 106.394 299.512 116.74C299.512 129.673 285.717 129.673 278.819 129.673C283.992 129.673 294.339 130.19 294.339 142.606C294.339 155.021 278.819 158.125 271.06 158.125C276.233 158.125 283.992 160.194 283.992 168.471C283.992 176.748 278.819 181.404 271.06 181.404H209.62C195.454 181.404 181.341 179.667 167.598 176.231C157.252 173.644 144.319 172.85 144.319 172.85Z" fill="#FCEFDF"/>
<rect x="53.79" y="75.3557" width="77.5962" height="108.635" fill="#106A23"/>
<rect x="131.386" y="75.3557" width="36.2115" height="108.635" fill="#179632"/>
<circle cx="149.493" cy="93.4618" r="7.75962" fill="#106A23"/>
<circle cx="310.272" cy="24.0381" r="3" fill="#8CEDA1"/>
<circle cx="213.628" cy="225.375" r="7.75962" fill="#8CEDA1"/>
<circle cx="15.5202" cy="15.5192" r="15.5192" fill="#E4FBE9"/>
</svg>
